<mxfile host="app.diagrams.net" agent="Mozilla/5.0 (Macintosh; Intel Mac OS X 10_15_7) AppleWebKit/605.1.15 (KHTML, like Gecko) Version/18.0.1 Safari/605.1.15" version="24.8.6">
  <diagram name="第 1 页" id="H4aQDe363Q3FN4pCdWJd">
    <mxGraphModel dx="1558" dy="774" grid="1" gridSize="10" guides="1" tooltips="1" connect="1" arrows="1" fold="1" page="1" pageScale="1" pageWidth="827" pageHeight="1169" math="0" shadow="0">
      <root>
        <mxCell id="0" />
        <mxCell id="1" parent="0" />
        <mxCell id="ezdm7JE4SphXt4pjz0XS-2" value="" style="strokeWidth=2;html=1;shape=mxgraph.flowchart.database;whiteSpace=wrap;fontStyle=0;align=center;verticalAlign=bottom;labelPosition=center;verticalLabelPosition=middle;horizontal=1;" parent="1" vertex="1">
          <mxGeometry x="207" y="326" width="90" height="75" as="geometry" />
        </mxCell>
        <mxCell id="ezdm7JE4SphXt4pjz0XS-3" value="Malware&lt;div&gt;Samples&lt;/div&gt;" style="text;html=1;align=center;verticalAlign=middle;resizable=0;points=[];autosize=1;strokeColor=none;fillColor=none;" parent="1" vertex="1">
          <mxGeometry x="217" y="355" width="70" height="40" as="geometry" />
        </mxCell>
        <mxCell id="ezdm7JE4SphXt4pjz0XS-4" value="" style="endArrow=classic;html=1;rounded=0;" parent="1" edge="1">
          <mxGeometry width="50" height="50" relative="1" as="geometry">
            <mxPoint x="251.70999999999998" y="320" as="sourcePoint" />
            <mxPoint x="251.70999999999998" y="250" as="targetPoint" />
          </mxGeometry>
        </mxCell>
        <mxCell id="ezdm7JE4SphXt4pjz0XS-5" value="" style="rounded=0;whiteSpace=wrap;html=1;" parent="1" vertex="1">
          <mxGeometry x="207" y="190" width="90" height="56" as="geometry" />
        </mxCell>
        <mxCell id="ezdm7JE4SphXt4pjz0XS-6" value="Dynamic&lt;div&gt;Analysis&lt;/div&gt;" style="text;html=1;align=center;verticalAlign=middle;resizable=0;points=[];autosize=1;strokeColor=none;fillColor=none;" parent="1" vertex="1">
          <mxGeometry x="217" y="197" width="70" height="40" as="geometry" />
        </mxCell>
        <mxCell id="ezdm7JE4SphXt4pjz0XS-7" value="" style="endArrow=classic;html=1;rounded=0;" parent="1" edge="1">
          <mxGeometry width="50" height="50" relative="1" as="geometry">
            <mxPoint x="300" y="218" as="sourcePoint" />
            <mxPoint x="370" y="217.66" as="targetPoint" />
          </mxGeometry>
        </mxCell>
        <mxCell id="ezdm7JE4SphXt4pjz0XS-13" value="" style="endArrow=classic;html=1;rounded=0;" parent="1" edge="1">
          <mxGeometry width="50" height="50" relative="1" as="geometry">
            <mxPoint x="435.65999999999997" y="250" as="sourcePoint" />
            <mxPoint x="435.65999999999997" y="340.6896551724138" as="targetPoint" />
          </mxGeometry>
        </mxCell>
        <mxCell id="ezdm7JE4SphXt4pjz0XS-17" value="" style="shape=document;whiteSpace=wrap;html=1;boundedLbl=1;" parent="1" vertex="1">
          <mxGeometry x="379" y="343" width="117" height="74" as="geometry" />
        </mxCell>
        <mxCell id="ezdm7JE4SphXt4pjz0XS-18" value="" style="shape=document;whiteSpace=wrap;html=1;boundedLbl=1;" parent="1" vertex="1">
          <mxGeometry x="370" y="350" width="120" height="75" as="geometry" />
        </mxCell>
        <mxCell id="ezdm7JE4SphXt4pjz0XS-19" value="" style="shape=document;whiteSpace=wrap;html=1;boundedLbl=1;labelBorderColor=none;" parent="1" vertex="1">
          <mxGeometry x="364" y="357" width="120" height="70" as="geometry" />
        </mxCell>
        <mxCell id="ezdm7JE4SphXt4pjz0XS-20" value="FSM/Call Graph" style="text;html=1;align=center;verticalAlign=middle;resizable=0;points=[];autosize=1;strokeColor=none;fillColor=none;" parent="1" vertex="1">
          <mxGeometry x="371" y="370" width="110" height="30" as="geometry" />
        </mxCell>
        <mxCell id="ezdm7JE4SphXt4pjz0XS-21" value="" style="shape=document;whiteSpace=wrap;html=1;boundedLbl=1;" parent="1" vertex="1">
          <mxGeometry x="386" y="175" width="117" height="74" as="geometry" />
        </mxCell>
        <mxCell id="ezdm7JE4SphXt4pjz0XS-22" value="" style="shape=document;whiteSpace=wrap;html=1;boundedLbl=1;" parent="1" vertex="1">
          <mxGeometry x="377" y="182" width="120" height="75" as="geometry" />
        </mxCell>
        <mxCell id="ezdm7JE4SphXt4pjz0XS-23" value="" style="shape=document;whiteSpace=wrap;html=1;boundedLbl=1;labelBorderColor=none;" parent="1" vertex="1">
          <mxGeometry x="371" y="189" width="120" height="70" as="geometry" />
        </mxCell>
        <mxCell id="ezdm7JE4SphXt4pjz0XS-24" value="API Call&lt;div&gt;Sequence&lt;/div&gt;" style="text;html=1;align=center;verticalAlign=middle;resizable=0;points=[];autosize=1;strokeColor=none;fillColor=none;" parent="1" vertex="1">
          <mxGeometry x="393" y="197" width="80" height="40" as="geometry" />
        </mxCell>
        <mxCell id="ezdm7JE4SphXt4pjz0XS-25" value="Structural&lt;div&gt;Representation&lt;/div&gt;" style="text;html=1;align=center;verticalAlign=middle;resizable=0;points=[];autosize=1;strokeColor=none;fillColor=none;" parent="1" vertex="1">
          <mxGeometry x="340" y="280" width="100" height="40" as="geometry" />
        </mxCell>
        <mxCell id="ezdm7JE4SphXt4pjz0XS-33" value="" style="endArrow=classic;html=1;rounded=0;" parent="1" edge="1">
          <mxGeometry width="50" height="50" relative="1" as="geometry">
            <mxPoint x="522" y="294" as="sourcePoint" />
            <mxPoint x="570" y="294" as="targetPoint" />
          </mxGeometry>
        </mxCell>
        <mxCell id="ezdm7JE4SphXt4pjz0XS-35" value="&lt;i&gt;feed&lt;/i&gt;" style="text;html=1;align=center;verticalAlign=middle;resizable=0;points=[];autosize=1;strokeColor=none;fillColor=none;" parent="1" vertex="1">
          <mxGeometry x="520" y="264.78" width="50" height="30" as="geometry" />
        </mxCell>
        <mxCell id="ezdm7JE4SphXt4pjz0XS-37" value="" style="rounded=0;whiteSpace=wrap;html=1;rotation=90;" parent="1" vertex="1">
          <mxGeometry x="529.87" y="255.13" width="162.75" height="80.5" as="geometry" />
        </mxCell>
        <mxCell id="ezdm7JE4SphXt4pjz0XS-38" value="LLM&lt;div&gt;Encoder&lt;/div&gt;" style="text;html=1;align=center;verticalAlign=middle;resizable=0;points=[];autosize=1;strokeColor=none;fillColor=none;" parent="1" vertex="1">
          <mxGeometry x="576.25" y="270" width="70" height="40" as="geometry" />
        </mxCell>
        <mxCell id="yIGRJzgeX2FqWWyCbdT4-8" value="" style="group" vertex="1" connectable="0" parent="1">
          <mxGeometry x="340" y="147" width="180" height="304" as="geometry" />
        </mxCell>
        <mxCell id="ezdm7JE4SphXt4pjz0XS-27" value="" style="endArrow=none;dashed=1;html=1;rounded=0;" parent="yIGRJzgeX2FqWWyCbdT4-8" edge="1">
          <mxGeometry width="50" height="50" relative="1" as="geometry">
            <mxPoint y="303" as="sourcePoint" />
            <mxPoint as="targetPoint" />
          </mxGeometry>
        </mxCell>
        <mxCell id="ezdm7JE4SphXt4pjz0XS-28" value="" style="endArrow=none;dashed=1;html=1;rounded=0;" parent="yIGRJzgeX2FqWWyCbdT4-8" edge="1">
          <mxGeometry width="50" height="50" relative="1" as="geometry">
            <mxPoint x="180" y="303" as="sourcePoint" />
            <mxPoint x="180" as="targetPoint" />
          </mxGeometry>
        </mxCell>
        <mxCell id="ezdm7JE4SphXt4pjz0XS-31" value="" style="endArrow=none;dashed=1;html=1;rounded=0;" parent="yIGRJzgeX2FqWWyCbdT4-8" edge="1">
          <mxGeometry width="50" height="50" relative="1" as="geometry">
            <mxPoint as="sourcePoint" />
            <mxPoint x="180" y="1" as="targetPoint" />
          </mxGeometry>
        </mxCell>
        <mxCell id="ezdm7JE4SphXt4pjz0XS-32" value="" style="endArrow=none;dashed=1;html=1;rounded=0;" parent="yIGRJzgeX2FqWWyCbdT4-8" edge="1">
          <mxGeometry width="50" height="50" relative="1" as="geometry">
            <mxPoint y="303" as="sourcePoint" />
            <mxPoint x="180" y="304" as="targetPoint" />
          </mxGeometry>
        </mxCell>
        <mxCell id="ezdm7JE4SphXt4pjz0XS-64" value="" style="whiteSpace=wrap;html=1;aspect=fixed;container=0;" parent="1" vertex="1">
          <mxGeometry x="796.7745664739884" y="157.29298701298703" width="27.225433526011564" height="27.225433526011564" as="geometry" />
        </mxCell>
        <mxCell id="ezdm7JE4SphXt4pjz0XS-65" value="" style="whiteSpace=wrap;html=1;aspect=fixed;container=0;" parent="1" vertex="1">
          <mxGeometry x="796.7745664739884" y="184.83194805194805" width="27.225433526011564" height="27.225433526011564" as="geometry" />
        </mxCell>
        <mxCell id="ezdm7JE4SphXt4pjz0XS-66" value="" style="whiteSpace=wrap;html=1;aspect=fixed;container=0;" parent="1" vertex="1">
          <mxGeometry x="796.7745664739884" y="212.3709090909091" width="27.225433526011564" height="27.225433526011564" as="geometry" />
        </mxCell>
        <mxCell id="ezdm7JE4SphXt4pjz0XS-67" value="" style="whiteSpace=wrap;html=1;aspect=fixed;container=0;" parent="1" vertex="1">
          <mxGeometry x="796.7745664739884" y="239.90987012987014" width="27.225433526011564" height="27.225433526011564" as="geometry" />
        </mxCell>
        <mxCell id="ezdm7JE4SphXt4pjz0XS-58" value="" style="whiteSpace=wrap;html=1;aspect=fixed;container=0;" parent="1" vertex="1">
          <mxGeometry x="784.9768786127167" y="168.23292207792207" width="27.225433526011564" height="27.225433526011564" as="geometry" />
        </mxCell>
        <mxCell id="ezdm7JE4SphXt4pjz0XS-59" value="" style="whiteSpace=wrap;html=1;aspect=fixed;container=0;" parent="1" vertex="1">
          <mxGeometry x="784.9768786127167" y="195.77188311688312" width="27.225433526011564" height="27.225433526011564" as="geometry" />
        </mxCell>
        <mxCell id="ezdm7JE4SphXt4pjz0XS-60" value="" style="whiteSpace=wrap;html=1;aspect=fixed;container=0;" parent="1" vertex="1">
          <mxGeometry x="784.9768786127167" y="223.31084415584414" width="27.225433526011564" height="27.225433526011564" as="geometry" />
        </mxCell>
        <mxCell id="ezdm7JE4SphXt4pjz0XS-61" value="" style="whiteSpace=wrap;html=1;aspect=fixed;container=0;" parent="1" vertex="1">
          <mxGeometry x="784.9768786127167" y="250.8498051948052" width="27.225433526011564" height="27.225433526011564" as="geometry" />
        </mxCell>
        <mxCell id="ezdm7JE4SphXt4pjz0XS-52" value="" style="whiteSpace=wrap;html=1;aspect=fixed;container=0;" parent="1" vertex="1">
          <mxGeometry x="771.364161849711" y="178.22155844155844" width="27.225433526011564" height="27.225433526011564" as="geometry" />
        </mxCell>
        <mxCell id="ezdm7JE4SphXt4pjz0XS-53" value="" style="whiteSpace=wrap;html=1;aspect=fixed;container=0;" parent="1" vertex="1">
          <mxGeometry x="771.364161849711" y="205.7605194805195" width="27.225433526011564" height="27.225433526011564" as="geometry" />
        </mxCell>
        <mxCell id="ezdm7JE4SphXt4pjz0XS-54" value="" style="whiteSpace=wrap;html=1;aspect=fixed;container=0;" parent="1" vertex="1">
          <mxGeometry x="771.364161849711" y="233.2994805194805" width="27.225433526011564" height="27.225433526011564" as="geometry" />
        </mxCell>
        <mxCell id="ezdm7JE4SphXt4pjz0XS-55" value="" style="whiteSpace=wrap;html=1;aspect=fixed;container=0;" parent="1" vertex="1">
          <mxGeometry x="771.364161849711" y="260.83844155844156" width="27.225433526011564" height="27.225433526011564" as="geometry" />
        </mxCell>
        <mxCell id="ezdm7JE4SphXt4pjz0XS-149" value="" style="endArrow=none;html=1;rounded=0;" parent="1" edge="1">
          <mxGeometry width="50" height="50" relative="1" as="geometry">
            <mxPoint x="652" y="295.1447402597403" as="sourcePoint" />
            <mxPoint x="702.820809248555" y="295.62038961038957" as="targetPoint" />
          </mxGeometry>
        </mxCell>
        <mxCell id="ezdm7JE4SphXt4pjz0XS-150" value="" style="endArrow=none;html=1;rounded=0;" parent="1" edge="1">
          <mxGeometry width="50" height="50" relative="1" as="geometry">
            <mxPoint x="702.820809248555" y="301.89038961038955" as="sourcePoint" />
            <mxPoint x="703" y="220" as="targetPoint" />
          </mxGeometry>
        </mxCell>
        <mxCell id="ezdm7JE4SphXt4pjz0XS-151" value="" style="endArrow=none;html=1;rounded=0;" parent="1" edge="1">
          <mxGeometry width="50" height="50" relative="1" as="geometry">
            <mxPoint x="703" y="380" as="sourcePoint" />
            <mxPoint x="702.820809248555" y="301.89038961038955" as="targetPoint" />
          </mxGeometry>
        </mxCell>
        <mxCell id="ezdm7JE4SphXt4pjz0XS-154" value="" style="endArrow=classic;html=1;rounded=0;" parent="1" edge="1">
          <mxGeometry width="50" height="50" relative="1" as="geometry">
            <mxPoint x="703.070809248555" y="379.69285714285706" as="sourcePoint" />
            <mxPoint x="767" y="380" as="targetPoint" />
          </mxGeometry>
        </mxCell>
        <mxCell id="ezdm7JE4SphXt4pjz0XS-155" value="" style="endArrow=classic;html=1;rounded=0;" parent="1" edge="1">
          <mxGeometry width="50" height="50" relative="1" as="geometry">
            <mxPoint x="702.820809248555" y="220.58844155844156" as="sourcePoint" />
            <mxPoint x="765" y="221" as="targetPoint" />
          </mxGeometry>
        </mxCell>
        <mxCell id="ezdm7JE4SphXt4pjz0XS-156" value="Base&lt;div&gt;Embedding&lt;/div&gt;" style="text;html=1;align=center;verticalAlign=middle;resizable=0;points=[];autosize=1;strokeColor=none;fillColor=none;container=0;" parent="1" vertex="1">
          <mxGeometry x="690.7630057803468" y="177.78" width="80" height="40" as="geometry" />
        </mxCell>
        <mxCell id="ezdm7JE4SphXt4pjz0XS-157" value="Structure&lt;div&gt;Embedding&lt;/div&gt;" style="text;html=1;align=center;verticalAlign=middle;resizable=0;points=[];autosize=1;strokeColor=none;fillColor=none;container=0;" parent="1" vertex="1">
          <mxGeometry x="690.9479768786127" y="380.728051948052" width="80" height="40" as="geometry" />
        </mxCell>
        <mxCell id="ezdm7JE4SphXt4pjz0XS-129" value="" style="whiteSpace=wrap;html=1;aspect=fixed;container=0;" parent="1" vertex="1">
          <mxGeometry x="796.7745664739884" y="300.93909090909085" width="27.225433526011564" height="27.225433526011564" as="geometry" />
        </mxCell>
        <mxCell id="ezdm7JE4SphXt4pjz0XS-130" value="" style="whiteSpace=wrap;html=1;aspect=fixed;container=0;" parent="1" vertex="1">
          <mxGeometry x="796.7745664739884" y="328.478051948052" width="27.225433526011564" height="27.225433526011564" as="geometry" />
        </mxCell>
        <mxCell id="ezdm7JE4SphXt4pjz0XS-131" value="" style="whiteSpace=wrap;html=1;aspect=fixed;container=0;" parent="1" vertex="1">
          <mxGeometry x="796.7745664739884" y="356.017012987013" width="27.225433526011564" height="27.225433526011564" as="geometry" />
        </mxCell>
        <mxCell id="ezdm7JE4SphXt4pjz0XS-132" value="" style="whiteSpace=wrap;html=1;aspect=fixed;container=0;" parent="1" vertex="1">
          <mxGeometry x="796.7745664739884" y="383.555974025974" width="27.225433526011564" height="27.225433526011564" as="geometry" />
        </mxCell>
        <mxCell id="ezdm7JE4SphXt4pjz0XS-135" value="" style="whiteSpace=wrap;html=1;aspect=fixed;container=0;" parent="1" vertex="1">
          <mxGeometry x="784.9768786127167" y="311.8790259740259" width="27.225433526011564" height="27.225433526011564" as="geometry" />
        </mxCell>
        <mxCell id="ezdm7JE4SphXt4pjz0XS-136" value="" style="whiteSpace=wrap;html=1;aspect=fixed;container=0;" parent="1" vertex="1">
          <mxGeometry x="784.9768786127167" y="339.41798701298706" width="27.225433526011564" height="27.225433526011564" as="geometry" />
        </mxCell>
        <mxCell id="ezdm7JE4SphXt4pjz0XS-137" value="" style="whiteSpace=wrap;html=1;aspect=fixed;container=0;" parent="1" vertex="1">
          <mxGeometry x="784.9768786127167" y="366.9569480519481" width="27.225433526011564" height="27.225433526011564" as="geometry" />
        </mxCell>
        <mxCell id="ezdm7JE4SphXt4pjz0XS-138" value="" style="whiteSpace=wrap;html=1;aspect=fixed;container=0;" parent="1" vertex="1">
          <mxGeometry x="784.9768786127167" y="394.4959090909091" width="27.225433526011564" height="27.225433526011564" as="geometry" />
        </mxCell>
        <mxCell id="ezdm7JE4SphXt4pjz0XS-141" value="" style="whiteSpace=wrap;html=1;aspect=fixed;container=0;" parent="1" vertex="1">
          <mxGeometry x="771.364161849711" y="321.8676623376623" width="27.225433526011564" height="27.225433526011564" as="geometry" />
        </mxCell>
        <mxCell id="ezdm7JE4SphXt4pjz0XS-142" value="" style="whiteSpace=wrap;html=1;aspect=fixed;container=0;" parent="1" vertex="1">
          <mxGeometry x="771.364161849711" y="349.4066233766233" width="27.225433526011564" height="27.225433526011564" as="geometry" />
        </mxCell>
        <mxCell id="ezdm7JE4SphXt4pjz0XS-143" value="" style="whiteSpace=wrap;html=1;aspect=fixed;container=0;" parent="1" vertex="1">
          <mxGeometry x="771.364161849711" y="376.94558441558445" width="27.225433526011564" height="27.225433526011564" as="geometry" />
        </mxCell>
        <mxCell id="ezdm7JE4SphXt4pjz0XS-144" value="" style="whiteSpace=wrap;html=1;aspect=fixed;container=0;" parent="1" vertex="1">
          <mxGeometry x="771.364161849711" y="404.48454545454547" width="27.225433526011564" height="27.225433526011564" as="geometry" />
        </mxCell>
        <mxCell id="yIGRJzgeX2FqWWyCbdT4-14" value="&lt;b&gt;&lt;u&gt;&lt;font style=&quot;font-size: 14px;&quot;&gt;Structure-guided Enhancement Module&lt;/font&gt;&lt;/u&gt;&lt;/b&gt;" style="text;html=1;align=center;verticalAlign=middle;resizable=0;points=[];autosize=1;strokeColor=none;fillColor=none;" vertex="1" parent="1">
          <mxGeometry x="841" y="160" width="280" height="30" as="geometry" />
        </mxCell>
        <mxCell id="yIGRJzgeX2FqWWyCbdT4-15" value="" style="rounded=0;whiteSpace=wrap;html=1;" vertex="1" parent="1">
          <mxGeometry x="905" y="217.78" width="185" height="190" as="geometry" />
        </mxCell>
        <mxCell id="yIGRJzgeX2FqWWyCbdT4-16" value="" style="rounded=0;whiteSpace=wrap;html=1;" vertex="1" parent="1">
          <mxGeometry x="937.5" y="254.78" width="120" height="60" as="geometry" />
        </mxCell>
        <mxCell id="yIGRJzgeX2FqWWyCbdT4-17" value="&lt;b&gt;Enhancement Layer&lt;/b&gt;" style="text;html=1;align=center;verticalAlign=middle;resizable=0;points=[];autosize=1;strokeColor=none;fillColor=none;" vertex="1" parent="1">
          <mxGeometry x="927.5" y="219.7" width="140" height="30" as="geometry" />
        </mxCell>
        <mxCell id="yIGRJzgeX2FqWWyCbdT4-19" value="Control&lt;div&gt;Mechanism&lt;/div&gt;" style="text;html=1;align=center;verticalAlign=middle;resizable=0;points=[];autosize=1;strokeColor=none;fillColor=none;" vertex="1" parent="1">
          <mxGeometry x="957.5" y="264.78" width="80" height="40" as="geometry" />
        </mxCell>
        <mxCell id="yIGRJzgeX2FqWWyCbdT4-21" value="" style="rounded=0;whiteSpace=wrap;html=1;" vertex="1" parent="1">
          <mxGeometry x="937.5" y="330.79999999999995" width="120" height="60" as="geometry" />
        </mxCell>
        <mxCell id="yIGRJzgeX2FqWWyCbdT4-22" value="Vector&lt;div&gt;Manipulation&lt;/div&gt;" style="text;html=1;align=center;verticalAlign=middle;resizable=0;points=[];autosize=1;strokeColor=none;fillColor=none;" vertex="1" parent="1">
          <mxGeometry x="952.5" y="340.79999999999995" width="90" height="40" as="geometry" />
        </mxCell>
        <mxCell id="yIGRJzgeX2FqWWyCbdT4-24" value="" style="endArrow=classic;html=1;rounded=0;" edge="1" parent="1">
          <mxGeometry width="50" height="50" relative="1" as="geometry">
            <mxPoint x="830" y="246.71" as="sourcePoint" />
            <mxPoint x="895" y="247" as="targetPoint" />
          </mxGeometry>
        </mxCell>
        <mxCell id="yIGRJzgeX2FqWWyCbdT4-25" value="" style="endArrow=classic;html=1;rounded=0;" edge="1" parent="1">
          <mxGeometry width="50" height="50" relative="1" as="geometry">
            <mxPoint x="830" y="369.43000000000006" as="sourcePoint" />
            <mxPoint x="895" y="369" as="targetPoint" />
          </mxGeometry>
        </mxCell>
        <mxCell id="yIGRJzgeX2FqWWyCbdT4-28" value="" style="ellipse;shape=cloud;whiteSpace=wrap;html=1;" vertex="1" parent="1">
          <mxGeometry x="1195" y="143" width="179" height="118" as="geometry" />
        </mxCell>
        <mxCell id="yIGRJzgeX2FqWWyCbdT4-29" value="&lt;b&gt;Structure-aware&lt;/b&gt;&lt;div&gt;&lt;b&gt;Latent Space&lt;/b&gt;&lt;/div&gt;" style="text;html=1;align=center;verticalAlign=middle;resizable=0;points=[];autosize=1;strokeColor=none;fillColor=none;" vertex="1" parent="1">
          <mxGeometry x="1229.5" y="188" width="110" height="40" as="geometry" />
        </mxCell>
        <mxCell id="yIGRJzgeX2FqWWyCbdT4-30" value="" style="endArrow=classic;html=1;rounded=0;" edge="1" parent="1">
          <mxGeometry width="50" height="50" relative="1" as="geometry">
            <mxPoint x="1140" y="205.07000000000005" as="sourcePoint" />
            <mxPoint x="1205" y="205.36" as="targetPoint" />
          </mxGeometry>
        </mxCell>
        <mxCell id="yIGRJzgeX2FqWWyCbdT4-31" value="" style="endArrow=classic;html=1;rounded=0;" edge="1" parent="1">
          <mxGeometry width="50" height="50" relative="1" as="geometry">
            <mxPoint x="1284.16" y="260.52000000000004" as="sourcePoint" />
            <mxPoint x="1284.66" y="316.43" as="targetPoint" />
          </mxGeometry>
        </mxCell>
        <mxCell id="yIGRJzgeX2FqWWyCbdT4-32" value="" style="rounded=1;whiteSpace=wrap;html=1;" vertex="1" parent="1">
          <mxGeometry x="1204.5" y="326" width="160" height="118" as="geometry" />
        </mxCell>
        <mxCell id="yIGRJzgeX2FqWWyCbdT4-33" value="Malware&lt;div&gt;Classification&lt;/div&gt;" style="text;html=1;align=center;verticalAlign=middle;resizable=0;points=[];autosize=1;strokeColor=none;fillColor=none;" vertex="1" parent="1">
          <mxGeometry x="1239.5" y="335.63" width="90" height="40" as="geometry" />
        </mxCell>
        <mxCell id="yIGRJzgeX2FqWWyCbdT4-34" value="" style="endArrow=none;html=1;rounded=0;" edge="1" parent="1">
          <mxGeometry width="50" height="50" relative="1" as="geometry">
            <mxPoint x="1244.25" y="384.65999999999997" as="sourcePoint" />
            <mxPoint x="1324.75" y="384.65999999999997" as="targetPoint" />
          </mxGeometry>
        </mxCell>
        <mxCell id="yIGRJzgeX2FqWWyCbdT4-35" value="" style="endArrow=none;html=1;rounded=0;" edge="1" parent="1">
          <mxGeometry width="50" height="50" relative="1" as="geometry">
            <mxPoint x="1244.25" y="399.99999999999994" as="sourcePoint" />
            <mxPoint x="1324.75" y="399.99999999999994" as="targetPoint" />
          </mxGeometry>
        </mxCell>
        <mxCell id="yIGRJzgeX2FqWWyCbdT4-36" value="" style="endArrow=none;html=1;rounded=0;" edge="1" parent="1">
          <mxGeometry width="50" height="50" relative="1" as="geometry">
            <mxPoint x="1244.25" y="416.99999999999994" as="sourcePoint" />
            <mxPoint x="1324.75" y="416.99999999999994" as="targetPoint" />
          </mxGeometry>
        </mxCell>
        <mxCell id="yIGRJzgeX2FqWWyCbdT4-38" value="" style="endArrow=none;html=1;rounded=0;" edge="1" parent="1">
          <mxGeometry width="50" height="50" relative="1" as="geometry">
            <mxPoint x="676" y="147" as="sourcePoint" />
            <mxPoint x="1136" y="147" as="targetPoint" />
          </mxGeometry>
        </mxCell>
        <mxCell id="yIGRJzgeX2FqWWyCbdT4-39" value="" style="endArrow=none;html=1;rounded=0;" edge="1" parent="1">
          <mxGeometry width="50" height="50" relative="1" as="geometry">
            <mxPoint x="675" y="449" as="sourcePoint" />
            <mxPoint x="1135" y="449" as="targetPoint" />
          </mxGeometry>
        </mxCell>
        <mxCell id="yIGRJzgeX2FqWWyCbdT4-40" value="" style="endArrow=none;html=1;rounded=0;" edge="1" parent="1">
          <mxGeometry width="50" height="50" relative="1" as="geometry">
            <mxPoint x="1135" y="449" as="sourcePoint" />
            <mxPoint x="1135" y="146" as="targetPoint" />
          </mxGeometry>
        </mxCell>
        <mxCell id="yIGRJzgeX2FqWWyCbdT4-41" value="" style="endArrow=none;html=1;rounded=0;" edge="1" parent="1">
          <mxGeometry width="50" height="50" relative="1" as="geometry">
            <mxPoint x="676" y="450" as="sourcePoint" />
            <mxPoint x="676" y="147" as="targetPoint" />
          </mxGeometry>
        </mxCell>
      </root>
    </mxGraphModel>
  </diagram>
</mxfile>
